the walking dead 2010 complete S2 1080p dts MultiSubs [Request]
.
User Request: Enjoy it.
.
[IMG]http://i.imgur.com/TS5mE.jpg[/IMG]
.
TV Series - tv14 -  Drama | Horror | Thriller
. 
http://www.imdb.com/title/tt1520211/
.
Police officer Rick Grimes leads a group of survivors in a world overrun by zombies. 
.
Source: Nordic Bluray 3x BD50
Format: MKV
Video: 1080p
Audio: DTS-ES 1510kbps, AC3 640kbps.
Subtitles: Dutch, Swedish, Norwegian, Danish, Finnish.
NL Vertaling: PinkGaai
.
Enjoy
.
INFO From 1ste epi

Video
Format                                   : AVC
Format/Info                              : Advanced Video Codec
Format profile                           : High@L4.1
Format settings, CABAC                   : Yes
Format settings, ReFrames                : 4 frames
Codec ID                                 : V_MPEG4/ISO/AVC
Bit rate                                 : 9 512 Kbps
Width                                    : 1 920 pixels
Height                                   : 1 080 pixels
Display aspect ratio                     : 16:9
Frame rate mode                          : Variable
Original frame rate                      : 23.976 fps
Color space                              : YUV
Chroma subsampling                       : 4:2:0
Bit depth                                : 8 bits
Scan type                                : Progressive
Bits/(Pixel*Frame)                       : 0.191
Writing library                          : x264 core 125 r2200 999b753
Language                                 : English
Default                                  : Yes
Forced                                   : No

Audio #1
ID                                       : 2
Format                                   : DTS
Format/Info                              : Digital Theater Systems
Format profile                           : ES
Codec ID                                 : A_DTS
Duration                                 : 1h 2mn
Bit rate mode                            : Constant
Bit rate                                 : 1 510 Kbps
Channel(s)                               : 6 channels
Channel positions                        : Front: L C R, Side: L R, LFE
Sampling rate                            : 48.0 KHz
Bit depth                                : 24 bits
Compression mode                         : Lossy
Stream size                              : 677 MiB (13%)
Title                                    : DTS
Language                                 : English
Default                                  : Yes

Audio #2
Format                                   : AC-3
Format/Info                              : Audio Coding 3
Mode extension                           : CM (complete main)
Format settings, Endianness              : Big
Codec ID                                 : A_AC3
Duration                                 : 1h 2mn
Bit rate mode                            : Constant
Bit rate                                 : 640 Kbps
Channel(s)                               : 6 channels
Channel positions                        : Front: L C R, Side: L R, LFE
Sampling rate                            : 48.0 KHz
Bit depth                                : 16 bits
Compression mode                         : Lossy
Stream size                              : 287 MiB (5%)
Title                                    : AC3 640kbps
Language                                 : English
Default                                  : No